<?xml version="1.0" encoding="utf-8"?>
<!-- Generator: Adobe Illustrator 24.0.0, SVG Export Plug-In . SVG Version: 6.00 Build 0)  -->
<svg version="1.1" id="Layer_1" xmlns="http://www.w3.org/2000/svg" xmlns:xlink="http://www.w3.org/1999/xlink" x="0px" y="0px"
	 viewBox="0 0 52 53" style="enable-background:new 0 0 52 53;" xml:space="preserve">
<style type="text/css">
	.st0{fill:#231F20;}
	.st1{fill:none;stroke:#FFFFFF;stroke-width:2.25;stroke-linecap:round;stroke-linejoin:round;}
</style>
<ellipse class="st0" cx="26.1" cy="26.3" rx="25.7" ry="25.7"/>
<path class="st1" d="M16.5,36.2c3.4,0,7.9-1.1,7.9-9v-9c0-1.4-0.9-2.3-2.3-2.3h-4.5c-1.4,0-2.3,0.8-2.3,2.2v6.8
	c0,1.4,0.8,2.3,2.3,2.3c1.1,0,1.1,0,1.1,1.1v1.1c0,1.1-1.1,2.3-2.3,2.3s-1.1,0-1.1,1.2V35C15.4,36.2,15.4,36.2,16.5,36.2z"/>
<path class="st1" d="M30,36.2c3.4,0,7.9-1.1,7.9-9v-9c0-1.4-0.9-2.3-2.3-2.3h-4.5c-1.4,0-2.3,0.8-2.3,2.2v6.8c0,1.4,0.8,2.3,2.3,2.3
	H32c0,2.5,0.3,4.5-3.1,4.5V35C28.9,36.2,28.9,36.2,30,36.2z"/>
</svg>
